<?xml version="1.0" encoding="UTF-8"?>
<svg width="18px" height="18px" viewBox="0 0 18 18" version="1.1" xmlns="http://www.w3.org/2000/svg" xmlns:xlink="http://www.w3.org/1999/xlink">
    <!-- Generator: Sketch 52.6 (67491) - http://www.bohemiancoding.com/sketch -->
    <title>ico-facebook</title>
    <desc>Created with Sketch.</desc>
    <defs>
        <path d="M0,8.67675097 C0,13.4877907 3.86492248,17.3527132 8.67635659,17.3527132 C13.0145349,17.3527132 16.9583333,14.1976744 16.9583333,8.67675097 C16.9583333,8.16366279 16.8794574,7.61153101 16.7611434,7.09883721 L8.67635659,7.09883721 L8.67635659,10.4514603 L13.3300388,10.4514603 C12.8962209,12.5807171 11.0820736,13.8032946 8.67635659,13.8032946 C5.83642733,13.8032946 3.5494186,11.5162859 3.5494186,8.67675097 C3.5494186,5.83682171 5.83642733,3.5494186 8.67635659,3.5494186 C9.89893411,3.5494186 11.0035921,3.98323643 11.870439,4.69312016 L14.3948643,2.16908915 C12.8567829,0.828197674 10.8844893,0 8.67635659,0 C3.86492248,0 0,3.86492248 0,8.67675097 Z" id="path-1"></path>
        <path d="M0,8.67675097 C0,13.4877907 3.86492248,17.3527132 8.67635659,17.3527132 C13.0145349,17.3527132 16.9583333,14.1976744 16.9583333,8.67675097 C16.9583333,8.16366279 16.8794574,7.61153101 16.7611434,7.09883721 L8.67635659,7.09883721 L8.67635659,10.4514603 L13.3300388,10.4514603 C12.8962209,12.5807171 11.0820736,13.8032946 8.67635659,13.8032946 C5.83642733,13.8032946 3.5494186,11.5162859 3.5494186,8.67675097 C3.5494186,5.83682171 5.83642733,3.5494186 8.67635659,3.5494186 C9.89893411,3.5494186 11.0035921,3.98323643 11.870439,4.69312016 L14.3948643,2.16908915 C12.8567829,0.828197674 10.8844893,0 8.67635659,0 C3.86492248,0 0,3.86492248 0,8.67675097 Z" id="path-3"></path>
        <path d="M0,8.67675097 C0,13.4877907 3.86492248,17.3527132 8.67635659,17.3527132 C13.0145349,17.3527132 16.9583333,14.1976744 16.9583333,8.67675097 C16.9583333,8.16366279 16.8794574,7.61153101 16.7611434,7.09883721 L8.67635659,7.09883721 L8.67635659,10.4514603 L13.3300388,10.4514603 C12.8962209,12.5807171 11.0820736,13.8032946 8.67635659,13.8032946 C5.83642733,13.8032946 3.5494186,11.5162859 3.5494186,8.67675097 C3.5494186,5.83682171 5.83642733,3.5494186 8.67635659,3.5494186 C9.89893411,3.5494186 11.0035921,3.98323643 11.870439,4.69312016 L14.3948643,2.16908915 C12.8567829,0.828197674 10.8844893,0 8.67635659,0 C3.86492248,0 0,3.86492248 0,8.67675097 Z" id="path-5"></path>
        <path d="M0,8.67675097 C0,13.4877907 3.86492248,17.3527132 8.67635659,17.3527132 C13.0145349,17.3527132 16.9583333,14.1976744 16.9583333,8.67675097 C16.9583333,8.16366279 16.8794574,7.61153101 16.7611434,7.09883721 L8.67635659,7.09883721 L8.67635659,10.4514603 L13.3300388,10.4514603 C12.8962209,12.5807171 11.0820736,13.8032946 8.67635659,13.8032946 C5.83642733,13.8032946 3.5494186,11.5162859 3.5494186,8.67675097 C3.5494186,5.83682171 5.83642733,3.5494186 8.67635659,3.5494186 C9.89893411,3.5494186 11.0035921,3.98323643 11.870439,4.69312016 L14.3948643,2.16908915 C12.8567829,0.828197674 10.8844893,0 8.67635659,0 C3.86492248,0 0,3.86492248 0,8.67675097 Z" id="path-7"></path>
    </defs>
    <g id="2.-Onboarding+Profilo" stroke="none" stroke-width="1" fill="none" fill-rule="evenodd">
        <g id="6.onboarding/01_accedi" transform="translate(-57.000000, -272.000000)">
            <g id="btn/icon-" transform="translate(25.000000, 251.000000)">
                <g id="ico/google" transform="translate(22.000000, 12.000000)">
                    <g id="Group-13" transform="translate(10.791667, 9.250000)">
                        <g id="Group-3">
                            <mask id="mask-2" fill="white">
                                <use xlink:href="#path-1"></use>
                            </mask>
                            <g id="Clip-2"></g>
                            <polygon id="Fill-1" fill="#FBBC05" mask="url(#mask-2)" points="-0.78875969 13.8033734 -0.78875969 3.54949748 5.91569767 8.67643547"></polygon>
                        </g>
                        <g id="Group-6">
                            <mask id="mask-4" fill="white">
                                <use xlink:href="#path-3"></use>
                            </mask>
                            <g id="Clip-5"></g>
                            <polygon id="Fill-4" fill="#EA4335" mask="url(#mask-4)" points="-0.78875969 3.54949748 5.91569767 8.67643547 8.67635659 6.27071841 18.1414729 4.73263702 18.1414729 -0.788680814 -0.78875969 -0.788680814"></polygon>
                        </g>
                        <g id="Group-9">
                            <mask id="mask-6" fill="white">
                                <use xlink:href="#path-5"></use>
                            </mask>
                            <g id="Clip-8"></g>
                            <polygon id="Fill-7" fill="#34A853" mask="url(#mask-6)" points="-0.78875969 13.8033734 11.0426357 4.73263702 14.1582364 5.12701686 18.1414729 -0.788680814 18.1414729 18.1415517 -0.78875969 18.1415517"></polygon>
                        </g>
                        <g id="Group-12">
                            <mask id="mask-8" fill="white">
                                <use xlink:href="#path-7"></use>
                            </mask>
                            <g id="Clip-11"></g>
                            <polygon id="Fill-10" fill="#4285F4" mask="url(#mask-8)" points="18.1414729 18.1415517 5.91569767 8.67643547 4.33817829 7.49329593 18.1414729 3.54949748"></polygon>
                        </g>
                    </g>
                </g>
            </g>
        </g>
    </g>
</svg>